<svg xmlns="http://www.w3.org/2000/svg" viewBox="0 0 500 500"><g id="freepik--background-simple--inject-94"><path d="M492.76,267.79c.08-1.08.16-2.15.3-3.22,1.5-11.49,8.49-97.87-100-206.5C276.42-58.69,149,72.45,127,106.73S98.54,193.64,81.55,159C71,137.59,98.42,110.78,59.64,122c-24.89,7.18-71.11,70.78-33.22,180S170.73,494.63,273,488.55c131.51-7.82,209-103.19,202.8-110.28s-55.13,14.06-44.37-.68C442,363.09,489.67,308.33,492.76,267.79Z" style="fill:#0E9A3D"></path><path d="M492.76,267.79c.08-1.08.16-2.15.3-3.22,1.5-11.49,8.49-97.87-100-206.5C276.42-58.69,149,72.45,127,106.73S98.54,193.64,81.55,159C71,137.59,98.42,110.78,59.64,122c-24.89,7.18-71.11,70.78-33.22,180S170.73,494.63,273,488.55c131.51-7.82,209-103.19,202.8-110.28s-55.13,14.06-44.37-.68C442,363.09,489.67,308.33,492.76,267.79Z" style="fill:#fff;opacity:0.8"></path></g><g id="freepik--Devices--inject-94"><path d="M53.53,368.83H425.65a12.6,12.6,0,0,1,12.6,12.6v22.91a0,0,0,0,1,0,0H40.93a0,0,0,0,1,0,0V381.43A12.6,12.6,0,0,1,53.53,368.83Z" style="fill:#fff;stroke:#263238;stroke-miterlimit:10"></path><line x1="3.9" y1="462.76" x2="495.73" y2="462.76" style="fill:none;stroke:#263238;stroke-miterlimit:10"></line><path d="M335.73,378.09a3,3,0,1,1-3-3A3,3,0,0,1,335.73,378.09Z" style="fill:#0E9A3D;stroke:#263238;stroke-linecap:round;stroke-linejoin:round"></path><path d="M345.39,378.09a3,3,0,1,1-3-3A3,3,0,0,1,345.39,378.09Z" style="fill:#fff;stroke:#263238;stroke-miterlimit:10"></path><path d="M355.05,378.09a3,3,0,1,1-3-3A3,3,0,0,1,355.05,378.09Z" style="fill:#0E9A3D;stroke:#263238;stroke-linecap:round;stroke-linejoin:round"></path><path d="M364.71,378.09a3,3,0,1,1-3-3A3,3,0,0,1,364.71,378.09Z" style="fill:#263238;stroke:#263238;stroke-linecap:round;stroke-linejoin:round"></path><path d="M407.17,378.09a3,3,0,1,1-3-3A3,3,0,0,1,407.17,378.09Z" style="fill:#0E9A3D;stroke:#263238;stroke-linecap:round;stroke-linejoin:round"></path><path d="M416.83,378.09a3,3,0,1,1-3-3A3,3,0,0,1,416.83,378.09Z" style="fill:#263238;stroke:#263238;stroke-linecap:round;stroke-linejoin:round"></path><path d="M407.17,387.05a3,3,0,1,1-3-3A3,3,0,0,1,407.17,387.05Z" style="fill:#0E9A3D;stroke:#263238;stroke-linecap:round;stroke-linejoin:round"></path><path d="M416.83,387.05a3,3,0,1,1-3-3A3,3,0,0,1,416.83,387.05Z" style="fill:#263238;stroke:#263238;stroke-linecap:round;stroke-linejoin:round"></path><path d="M92,378.09a3,3,0,1,1-3-3A3,3,0,0,1,92,378.09Z" style="fill:#0E9A3D;stroke:#263238;stroke-linecap:round;stroke-linejoin:round"></path><path d="M101.68,378.09a3,3,0,1,1-3-3A3,3,0,0,1,101.68,378.09Z" style="fill:#263238;stroke:#263238;stroke-linecap:round;stroke-linejoin:round"></path><path d="M92,387.05a3,3,0,1,1-3-3A3,3,0,0,1,92,387.05Z" style="fill:#0E9A3D;stroke:#263238;stroke-linecap:round;stroke-linejoin:round"></path><path d="M101.68,387.05a3,3,0,1,1-3-3A3,3,0,0,1,101.68,387.05Z" style="fill:#263238;stroke:#263238;stroke-linecap:round;stroke-linejoin:round"></path><rect x="380.45" y="371.19" width="4.42" height="19.88" style="fill:#fff;stroke:#263238;stroke-miterlimit:10"></rect><rect x="380.66" y="378.7" width="4.15" height="5.82" style="fill:#263238;stroke:#263238;stroke-linecap:round;stroke-linejoin:round"></rect><rect x="387.09" y="371.19" width="4.42" height="19.88" style="fill:#fff;stroke:#263238;stroke-miterlimit:10"></rect><rect x="387.31" y="374.34" width="4.15" height="5.82" style="fill:#263238;stroke:#263238;stroke-linecap:round;stroke-linejoin:round"></rect><rect x="393.74" y="371.19" width="4.42" height="19.88" style="fill:#fff;stroke:#263238;stroke-miterlimit:10"></rect><rect x="393.95" y="381.82" width="4.15" height="5.82" style="fill:#263238;stroke:#263238;stroke-linecap:round;stroke-linejoin:round"></rect><path d="M172.44,352.75H306.75a12.6,12.6,0,0,1,12.6,12.6v22.91a0,0,0,0,1,0,0H159.84a0,0,0,0,1,0,0V365.35A12.6,12.6,0,0,1,172.44,352.75Z" style="fill:#fff;stroke:#263238;stroke-miterlimit:10"></path><path d="M177.48,379.72a3,3,0,1,1-3-3A3,3,0,0,1,177.48,379.72Z" style="fill:#fff;stroke:#263238;stroke-miterlimit:10"></path><path d="M311.54,367.15a6.24,6.24,0,1,0-6.23,6.23A6.23,6.23,0,0,0,311.54,367.15Z" style="fill:#263238"></path><line x1="305.37" y1="357.98" x2="305.37" y2="359.84" style="fill:none;stroke:#263238;stroke-miterlimit:10;stroke-width:0.5px"></line><line x1="305.37" y1="374.45" x2="305.37" y2="376.31" style="fill:none;stroke:#263238;stroke-miterlimit:10;stroke-width:0.5px"></line><line x1="296.2" y1="367.15" x2="298.07" y2="367.15" style="fill:none;stroke:#263238;stroke-miterlimit:10;stroke-width:0.5px"></line><line x1="312.68" y1="367.15" x2="314.54" y2="367.15" style="fill:none;stroke:#263238;stroke-miterlimit:10;stroke-width:0.5px"></line><line x1="311.85" y1="360.66" x2="310.54" y2="361.98" style="fill:none;stroke:#263238;stroke-miterlimit:10;stroke-width:0.5px"></line><line x1="300.21" y1="372.31" x2="298.89" y2="373.63" style="fill:none;stroke:#263238;stroke-miterlimit:10;stroke-width:0.5px"></line><line x1="298.89" y1="360.66" x2="300.21" y2="361.98" style="fill:none;stroke:#263238;stroke-miterlimit:10;stroke-width:0.5px"></line><line x1="310.54" y1="372.31" x2="311.85" y2="373.63" style="fill:none;stroke:#263238;stroke-miterlimit:10;stroke-width:0.5px"></line><rect x="167.83" y="364.09" width="13.53" height="9.62" style="fill:#0E9A3D;stroke:#263238;stroke-linecap:round;stroke-linejoin:round"></rect><rect x="189.03" y="309.12" width="101.12" height="72.83" style="fill:#263238;stroke:#263238;stroke-miterlimit:10"></rect><rect x="194.69" y="314.5" width="89.8" height="62.06" style="fill:#0E9A3D;stroke:#263238;stroke-linecap:round;stroke-linejoin:round"></rect><rect x="203.61" y="354.04" width="74.41" height="4.07" style="fill:#fff;stroke:#263238;stroke-miterlimit:10"></rect><rect x="203.61" y="354.04" width="40.72" height="4.07" style="fill:#263238"></rect><polygon points="261.4 374.05 217.79 374.05 212.34 389.43 266.85 389.43 261.4 374.05" style="fill:#fff;stroke:#263238;stroke-linecap:round;stroke-linejoin:round"></polygon><rect x="17.68" y="393.29" width="444.06" height="69.47" style="fill:#8a8a8a;stroke:#263238;stroke-linecap:round;stroke-linejoin:round"></rect><polygon points="17.68 393.29 132.05 454.9 352.39 454.9 461.74 393.29 17.68 393.29" style="fill:#b8b8b8;stroke:#263238;stroke-linecap:round;stroke-linejoin:round"></polygon><path d="M107.78,387.06v36.11h56.76a12.29,12.29,0,0,0,10.32-5.62l6.42-10a12.28,12.28,0,0,1,10.33-5.63h96a12.28,12.28,0,0,1,10.33,5.63l6.42,10a12.29,12.29,0,0,0,10.32,5.62h56.76V387.06Z" style="fill:#fff;stroke:#263238;stroke-miterlimit:10"></path><rect x="107.78" y="387.06" width="263.63" height="11.86" style="fill:#263238;stroke:#263238;stroke-miterlimit:10"></rect><rect x="104.08" y="387.06" width="271.02" height="8.13" rx="3.07" style="fill:#fff;stroke:#263238;stroke-miterlimit:10"></rect><polygon points="124.92 440.53 110.8 440.53 107.78 423.17 127.94 423.17 124.92 440.53" style="fill:#fff;stroke:#263238;stroke-miterlimit:10"></polygon><polygon points="368.33 440.53 354.21 440.53 351.19 423.17 371.35 423.17 368.33 440.53" style="fill:#fff;stroke:#263238;stroke-miterlimit:10"></polygon><rect x="115.06" y="401.79" width="50.89" height="14.2" rx="1.86" style="fill:#263238;stroke:#263238;stroke-miterlimit:10"></rect><rect x="312.63" y="401.79" width="50.89" height="14.2" rx="1.86" style="fill:#263238;stroke:#263238;stroke-miterlimit:10"></rect><rect x="113.85" y="372.73" width="22.68" height="2.79" rx="1.39" style="fill:#263238;stroke:#263238;stroke-linecap:round;stroke-linejoin:round"></rect><path d="M135.14,382.08H115.25a1.4,1.4,0,0,1-1.4-1.39h0a1.4,1.4,0,0,1,1.4-1.4h19.89a1.4,1.4,0,0,1,1.39,1.4h0A1.39,1.39,0,0,1,135.14,382.08Z" style="fill:#263238;stroke:#263238;stroke-linecap:round;stroke-linejoin:round"></path><path d="M212.83,345V333.24h-2.14v-2.1h7.08v2.1h-2.11V345Z" style="fill:#263238"></path><path d="M219,345V331.14h6v1.95h-3.22v3.67h2.48v2h-2.48v4.34h3.25V345Z" style="fill:#263238"></path><path d="M230.09,345.17a4.32,4.32,0,0,1-2.14-.47,2.94,2.94,0,0,1-1.29-1.42,6.41,6.41,0,0,1-.5-2.42l2.42-.41a8.26,8.26,0,0,0,.18,1.43,1.8,1.8,0,0,0,.45.86,1.06,1.06,0,0,0,.74.28.8.8,0,0,0,.74-.34,1.57,1.57,0,0,0,.2-.79,2.45,2.45,0,0,0-.42-1.46,7.41,7.41,0,0,0-1.1-1.19L227.93,338a5.62,5.62,0,0,1-1.25-1.47,3.79,3.79,0,0,1-.49-2,3.38,3.38,0,0,1,1-2.63,3.91,3.91,0,0,1,2.74-.91,3.69,3.69,0,0,1,1.71.34,2.59,2.59,0,0,1,1,.92,3.87,3.87,0,0,1,.51,1.24,7.83,7.83,0,0,1,.18,1.34l-2.41.36a10.41,10.41,0,0,0-.11-1.11,1.52,1.52,0,0,0-.31-.75.85.85,0,0,0-.69-.27.82.82,0,0,0-.74.37,1.43,1.43,0,0,0-.24.81,2,2,0,0,0,.34,1.2,5.36,5.36,0,0,0,.91,1l1.4,1.24a8.15,8.15,0,0,1,1.5,1.71,4.38,4.38,0,0,1,.62,2.39,3.59,3.59,0,0,1-.44,1.76,3.26,3.26,0,0,1-1.24,1.23A3.86,3.86,0,0,1,230.09,345.17Z" style="fill:#263238"></path><path d="M236.43,345V333.24h-2.14v-2.1h7.08v2.1h-2.11V345Z" style="fill:#263238"></path><path d="M242.65,345V331.14h2.8V345Z" style="fill:#263238"></path><path d="M247.57,345V331.14h2l3.08,7.21v-7.21h2.33V345h-1.88L250,337.33V345Z" style="fill:#263238"></path><path d="M260.57,345.19a3.77,3.77,0,0,1-2.22-.59,3.25,3.25,0,0,1-1.17-1.68,8.29,8.29,0,0,1-.35-2.52v-4.63a8.11,8.11,0,0,1,.36-2.56,3.07,3.07,0,0,1,1.26-1.66,4.41,4.41,0,0,1,2.43-.58,4.72,4.72,0,0,1,2.35.5,2.78,2.78,0,0,1,1.24,1.4,5.58,5.58,0,0,1,.38,2.15v.8H262.1v-1a6.78,6.78,0,0,0-.07-1,1.12,1.12,0,0,0-.32-.65,1.1,1.1,0,0,0-.79-.24,1,1,0,0,0-.82.29,1.44,1.44,0,0,0-.33.74,7.25,7.25,0,0,0-.07,1v6.13a4.61,4.61,0,0,0,.11,1,1.26,1.26,0,0,0,.38.72,1.18,1.18,0,0,0,.81.26,1.1,1.1,0,0,0,.82-.28,1.37,1.37,0,0,0,.4-.74,4.32,4.32,0,0,0,.12-1.07v-1.47H261v-1.71h3.9V345H263l-.18-1.24a2.46,2.46,0,0,1-.82,1A2.4,2.4,0,0,1,260.57,345.19Z" style="fill:#263238"></path><path d="M266.57,345v-2.51H269V345Z" style="fill:#263238"></path><path d="M270.54,345v-2.51H273V345Z" style="fill:#263238"></path><path d="M274.5,345v-2.51H277V345Z" style="fill:#263238"></path></g><g id="freepik--Icon--inject-94"><path d="M330.79,320l-11.91-8.41v-4.45l11.91-8.5v4.5l-8.53,6.2,8.53,6.21Z" style="fill:#263238"></path><path d="M334.42,321.45l9.07-33.73h3.88l-9.12,33.73Z" style="fill:#263238"></path><path d="M351,320V315.5l8.58-6.25L351,303.09v-4.5L362.94,307v4.46Z" style="fill:#263238"></path></g><g id="freepik--Sign--inject-94"><path d="M426.35,107l-29.73,51.49a1.59,1.59,0,0,0,1.38,2.39h59.45a1.6,1.6,0,0,0,1.38-2.39L429.1,107A1.59,1.59,0,0,0,426.35,107Zm2.94,4.87,25.37,43.46a1.85,1.85,0,0,1-1.57,2.79H402.36a1.85,1.85,0,0,1-1.57-2.79l25.36-43.46A1.81,1.81,0,0,1,429.29,111.87Z" style="fill:#0E9A3D;stroke:#263238;stroke-linecap:round;stroke-linejoin:round"></path><rect x="425.04" y="124.54" width="5.36" height="20.72" style="fill:#0E9A3D;stroke:#263238;stroke-linecap:round;stroke-linejoin:round"></rect><rect x="425.04" y="148.47" width="5.36" height="4.64" style="fill:#0E9A3D;stroke:#263238;stroke-linecap:round;stroke-linejoin:round"></rect></g><g id="freepik--Gears--inject-94"><path d="M154.26,86.5v-9l-11.55-1.8a29.9,29.9,0,0,0-4-10l7-9.58-6.37-6.37-9.44,6.9A30,30,0,0,0,120,52.36l-1.83-11.72h-9l-1.8,11.56a29.69,29.69,0,0,0-10,4l-9.58-7-6.37,6.37L88.25,65A29.58,29.58,0,0,0,84,75L72.28,76.77v9l11.55,1.8a29.9,29.9,0,0,0,4,10l-7,9.58,6.37,6.37,9.44-6.9a30,30,0,0,0,9.92,4.26l1.83,11.72h9l1.8-11.56a29.9,29.9,0,0,0,10-4l9.58,7,6.37-6.37-6.9-9.45a29.87,29.87,0,0,0,4.25-9.92Zm-41,15.78a20.65,20.65,0,1,1,20.65-20.65A20.64,20.64,0,0,1,113.27,102.28Z" style="fill:#0E9A3D;stroke:#263238;stroke-linecap:round;stroke-linejoin:round"></path><path d="M109.82,149.75v-9l-11.55-1.8a29.9,29.9,0,0,0-4-10l7-9.58L94.89,113l-9.45,6.9a30,30,0,0,0-9.92-4.25L73.7,103.9h-9l-1.8,11.55a30,30,0,0,0-10,4l-9.57-7-6.37,6.37,6.9,9.44a30,30,0,0,0-4.26,9.92L27.84,140v9l11.56,1.8a29.69,29.69,0,0,0,4,10l-7,9.58,6.37,6.37,9.45-6.9a29.78,29.78,0,0,0,9.92,4.25L64,185.88h9l1.8-11.55a29.9,29.9,0,0,0,10-4l9.58,7,6.37-6.37-6.9-9.44a30,30,0,0,0,4.26-9.92Zm-41,15.79a20.65,20.65,0,1,1,20.65-20.65A20.66,20.66,0,0,1,68.83,165.54Z" style="fill:#263238;stroke:#263238;stroke-linecap:round;stroke-linejoin:round"></path></g><g id="freepik--Tab--inject-94"><rect x="110.34" y="84.53" width="266.98" height="182.87" rx="6.68" style="fill:#fff;stroke:#263238;stroke-miterlimit:10"></rect><path d="M377.32,99.44V92a7.47,7.47,0,0,0-7.48-7.47h-252A7.46,7.46,0,0,0,110.34,92v7.44Z" style="fill:#0E9A3D;stroke:#263238;stroke-linecap:round;stroke-linejoin:round"></path><path d="M351.23,92.51a2.29,2.29,0,1,0-2.29,2.28A2.28,2.28,0,0,0,351.23,92.51Z" style="fill:#0E9A3D;stroke:#263238;stroke-linecap:round;stroke-linejoin:round"></path><path d="M360.71,92.51a2.29,2.29,0,1,0-2.29,2.28A2.29,2.29,0,0,0,360.71,92.51Z" style="fill:#263238;stroke:#263238;stroke-linecap:round;stroke-linejoin:round"></path><path d="M370.18,92.51a2.29,2.29,0,1,0-2.29,2.28A2.28,2.28,0,0,0,370.18,92.51Z" style="fill:#fff;stroke:#263238;stroke-miterlimit:10"></path><rect x="124.98" y="113.77" width="132.93" height="139.84" style="fill:#263238;stroke:#263238;stroke-linecap:round;stroke-linejoin:round"></rect><rect x="124.98" y="113.77" width="132.93" height="7.14" style="fill:#828282;stroke:#263238;stroke-linecap:round;stroke-linejoin:round"></rect><path d="M137.76,128.22H134a.93.93,0,0,1,0-1.86h3.76a.93.93,0,0,1,0,1.86Zm.93,3.37a.92.92,0,0,0-.93-.92H134a.93.93,0,1,0,0,1.85h3.76A.92.92,0,0,0,138.69,131.59Zm0,4.31a.92.92,0,0,0-.93-.93H134a.93.93,0,0,0,0,1.86h3.76A.93.93,0,0,0,138.69,135.9Zm0,4.3a.93.93,0,0,0-.93-.93H134a.93.93,0,0,0,0,1.86h3.76A.93.93,0,0,0,138.69,140.2Zm0,4.3a.93.93,0,0,0-.93-.93H134a.93.93,0,0,0,0,1.86h3.76A.92.92,0,0,0,138.69,144.5Zm0,4.31a.92.92,0,0,0-.93-.93H134a.93.93,0,0,0,0,1.86h3.76A.93.93,0,0,0,138.69,148.81Zm0,4.3a.93.93,0,0,0-.93-.93H134a.93.93,0,1,0,0,1.86h3.76A.93.93,0,0,0,138.69,153.11Zm0,4.3a.93.93,0,0,0-.93-.93H134a.93.93,0,0,0,0,1.86h3.76A.92.92,0,0,0,138.69,157.41Zm14.09-30.12a.93.93,0,0,0-.93-.93H142a.93.93,0,0,0,0,1.86h9.89A.93.93,0,0,0,152.78,127.29Zm0,4.3a.93.93,0,0,0-.93-.92H142a.93.93,0,0,0,0,1.85h9.89A.93.93,0,0,0,152.78,131.59Zm0,4.31a.93.93,0,0,0-.93-.93H142a.93.93,0,0,0,0,1.86h9.89A.93.93,0,0,0,152.78,135.9Zm0,4.3a.93.93,0,0,0-.93-.93H142a.93.93,0,0,0,0,1.86h9.89A.93.93,0,0,0,152.78,140.2Zm0,4.3a.93.93,0,0,0-.93-.93H142a.93.93,0,0,0,0,1.86h9.89A.93.93,0,0,0,152.78,144.5Zm11.83,4.31a.92.92,0,0,0-.93-.93H153.8a.93.93,0,0,0,0,1.86h9.88A.93.93,0,0,0,164.61,148.81Zm0,4.3a.93.93,0,0,0-.93-.93H153.8a.93.93,0,1,0,0,1.86h9.88A.93.93,0,0,0,164.61,153.11Zm0,4.3a.93.93,0,0,0-.93-.93H153.8a.93.93,0,0,0,0,1.86h9.88A.92.92,0,0,0,164.61,157.41Zm-7.48-30.12a1.08,1.08,0,1,0-1.08,1.08A1.07,1.07,0,0,0,157.13,127.29Zm3.22,0a1.08,1.08,0,1,0-1.07,1.08A1.07,1.07,0,0,0,160.35,127.29Zm3.23,0a1.08,1.08,0,1,0-1.07,1.08A1.07,1.07,0,0,0,163.58,127.29Zm3.23,0a1.08,1.08,0,1,0-1.08,1.08A1.07,1.07,0,0,0,166.81,127.29Zm3.23,0a1.08,1.08,0,1,0-1.08,1.08A1.08,1.08,0,0,0,170,127.29Zm3.22,0a1.08,1.08,0,1,0-1.07,1.08A1.07,1.07,0,0,0,173.26,127.29Zm-16.13,8.61a1.08,1.08,0,1,0-1.08,1.07A1.08,1.08,0,0,0,157.13,135.9Zm3.22,0a1.08,1.08,0,1,0-1.07,1.07A1.07,1.07,0,0,0,160.35,135.9Zm3.23,0a1.08,1.08,0,1,0-1.07,1.07A1.07,1.07,0,0,0,163.58,135.9Zm3.23,0a1.08,1.08,0,1,0-1.08,1.07A1.08,1.08,0,0,0,166.81,135.9Zm3.23,0A1.08,1.08,0,1,0,169,137,1.08,1.08,0,0,0,170,135.9Zm3.22,0a1.08,1.08,0,1,0-1.07,1.07A1.07,1.07,0,0,0,173.26,135.9Zm-5.11,12.37a1.08,1.08,0,1,0-1.07,1.08A1.08,1.08,0,0,0,168.15,148.27Zm3.23,0a1.08,1.08,0,1,0-1.07,1.08A1.08,1.08,0,0,0,171.38,148.27Zm3.23,0a1.08,1.08,0,1,0-1.08,1.08A1.08,1.08,0,0,0,174.61,148.27Zm3.23,0a1.08,1.08,0,1,0-1.08,1.08A1.09,1.09,0,0,0,177.84,148.27Zm3.22,0a1.08,1.08,0,1,0-1.07,1.08A1.08,1.08,0,0,0,181.06,148.27Zm3.23,0a1.08,1.08,0,1,0-1.08,1.08A1.08,1.08,0,0,0,184.29,148.27Zm-16.14,8.87a1.08,1.08,0,1,0-1.07,1.08A1.07,1.07,0,0,0,168.15,157.14Zm3.23,0a1.08,1.08,0,1,0-1.07,1.08A1.07,1.07,0,0,0,171.38,157.14Zm3.23,0a1.08,1.08,0,1,0-1.08,1.08A1.07,1.07,0,0,0,174.61,157.14Zm3.23,0a1.08,1.08,0,1,0-1.08,1.08A1.08,1.08,0,0,0,177.84,157.14Zm3.22,0a1.08,1.08,0,1,0-1.07,1.08A1.07,1.07,0,0,0,181.06,157.14Zm3.23,0a1.08,1.08,0,1,0-1.08,1.08A1.07,1.07,0,0,0,184.29,157.14Z" style="fill:#0E9A3D"></path><path d="M137.76,162.65H134a.93.93,0,1,1,0-1.85h3.76a.93.93,0,1,1,0,1.85Zm.93,3.38a.93.93,0,0,0-.93-.93H134a.93.93,0,0,0,0,1.86h3.76A.93.93,0,0,0,138.69,166Zm0,4.3a.93.93,0,0,0-.93-.93H134a.93.93,0,1,0,0,1.86h3.76A.92.92,0,0,0,138.69,170.33Zm0,4.31a.92.92,0,0,0-.93-.93H134a.93.93,0,1,0,0,1.85h3.76A.92.92,0,0,0,138.69,174.64Zm0,4.3a.92.92,0,0,0-.93-.93H134a.93.93,0,0,0,0,1.86h3.76A.93.93,0,0,0,138.69,178.94Zm0,4.3a.93.93,0,0,0-.93-.93H134a.93.93,0,1,0,0,1.86h3.76A.92.92,0,0,0,138.69,183.24Zm0,4.31a.92.92,0,0,0-.93-.93H134a.93.93,0,1,0,0,1.85h3.76A.92.92,0,0,0,138.69,187.55Zm0,4.3a.92.92,0,0,0-.93-.93H134a.93.93,0,0,0,0,1.86h3.76A.93.93,0,0,0,138.69,191.85Zm14.09-30.12a.93.93,0,0,0-.93-.93H142a.93.93,0,0,0,0,1.85h9.89A.93.93,0,0,0,152.78,161.73Zm0,4.3a.93.93,0,0,0-.93-.93H142a.93.93,0,0,0,0,1.86h9.89A.93.93,0,0,0,152.78,166Zm0,4.3a.93.93,0,0,0-.93-.93H142a.93.93,0,0,0,0,1.86h9.89A.93.93,0,0,0,152.78,170.33Zm0,4.31a.93.93,0,0,0-.93-.93H142a.93.93,0,0,0,0,1.85h9.89A.93.93,0,0,0,152.78,174.64Zm0,4.3a.93.93,0,0,0-.93-.93H142a.93.93,0,0,0,0,1.86h9.89A.93.93,0,0,0,152.78,178.94Zm11.83,4.3a.93.93,0,0,0-.93-.93H153.8a.93.93,0,1,0,0,1.86h9.88A.92.92,0,0,0,164.61,183.24Zm0,4.31a.92.92,0,0,0-.93-.93H153.8a.93.93,0,1,0,0,1.85h9.88A.92.92,0,0,0,164.61,187.55Zm0,4.3a.92.92,0,0,0-.93-.93H153.8a.93.93,0,0,0,0,1.86h9.88A.93.93,0,0,0,164.61,191.85Zm-7.48-30.12a1.08,1.08,0,1,0-1.08,1.07A1.08,1.08,0,0,0,157.13,161.73Zm3.22,0a1.08,1.08,0,1,0-1.07,1.07A1.07,1.07,0,0,0,160.35,161.73Zm3.23,0a1.08,1.08,0,1,0-1.07,1.07A1.07,1.07,0,0,0,163.58,161.73Zm3.23,0a1.08,1.08,0,1,0-1.08,1.07A1.08,1.08,0,0,0,166.81,161.73Zm3.23,0A1.08,1.08,0,1,0,169,162.8,1.08,1.08,0,0,0,170,161.73Zm3.22,0a1.08,1.08,0,1,0-1.07,1.07A1.07,1.07,0,0,0,173.26,161.73Zm-16.13,8.6a1.08,1.08,0,1,0-1.08,1.08A1.07,1.07,0,0,0,157.13,170.33Zm3.22,0a1.08,1.08,0,1,0-1.07,1.08A1.07,1.07,0,0,0,160.35,170.33Zm3.23,0a1.08,1.08,0,1,0-1.07,1.08A1.07,1.07,0,0,0,163.58,170.33Zm3.23,0a1.08,1.08,0,1,0-1.08,1.08A1.07,1.07,0,0,0,166.81,170.33Zm3.23,0a1.08,1.08,0,1,0-1.08,1.08A1.08,1.08,0,0,0,170,170.33Zm3.22,0a1.08,1.08,0,1,0-1.07,1.08A1.07,1.07,0,0,0,173.26,170.33Zm-5.11,12.37a1.08,1.08,0,1,0-1.07,1.08A1.07,1.07,0,0,0,168.15,182.7Zm3.23,0a1.08,1.08,0,1,0-1.07,1.08A1.07,1.07,0,0,0,171.38,182.7Zm3.23,0a1.08,1.08,0,1,0-1.08,1.08A1.07,1.07,0,0,0,174.61,182.7Zm3.23,0a1.08,1.08,0,1,0-1.08,1.08A1.08,1.08,0,0,0,177.84,182.7Zm3.22,0a1.08,1.08,0,1,0-1.07,1.08A1.07,1.07,0,0,0,181.06,182.7Zm3.23,0a1.08,1.08,0,1,0-1.08,1.08A1.07,1.07,0,0,0,184.29,182.7Zm-16.14,8.88a1.08,1.08,0,1,0-1.07,1.07A1.07,1.07,0,0,0,168.15,191.58Zm3.23,0a1.08,1.08,0,1,0-1.07,1.07A1.07,1.07,0,0,0,171.38,191.58Zm3.23,0a1.08,1.08,0,1,0-1.08,1.07A1.08,1.08,0,0,0,174.61,191.58Zm3.23,0a1.08,1.08,0,1,0-1.08,1.07A1.08,1.08,0,0,0,177.84,191.58Zm3.22,0a1.08,1.08,0,1,0-1.07,1.07A1.07,1.07,0,0,0,181.06,191.58Zm3.23,0a1.08,1.08,0,1,0-1.08,1.07A1.08,1.08,0,0,0,184.29,191.58Z" style="fill:#0E9A3D"></path><path d="M137.76,197.92H134a.93.93,0,1,1,0-1.86h3.76a.93.93,0,1,1,0,1.86Zm.93,3.37a.92.92,0,0,0-.93-.92H134a.93.93,0,1,0,0,1.85h3.76A.92.92,0,0,0,138.69,201.29Zm0,4.31a.92.92,0,0,0-.93-.93H134a.93.93,0,0,0,0,1.86h3.76A.93.93,0,0,0,138.69,205.6Zm0,4.3a.93.93,0,0,0-.93-.93H134a.93.93,0,0,0,0,1.86h3.76A.93.93,0,0,0,138.69,209.9Zm0,4.3a.92.92,0,0,0-.93-.92H134a.93.93,0,1,0,0,1.85h3.76A.92.92,0,0,0,138.69,214.2Zm0,4.31a.92.92,0,0,0-.93-.93H134a.93.93,0,0,0,0,1.86h3.76A.93.93,0,0,0,138.69,218.51Zm0,4.3a.93.93,0,0,0-.93-.93H134a.93.93,0,0,0,0,1.86h3.76A.93.93,0,0,0,138.69,222.81Zm0,4.3a.92.92,0,0,0-.93-.92H134a.93.93,0,1,0,0,1.85h3.76A.92.92,0,0,0,138.69,227.11ZM152.78,197a.93.93,0,0,0-.93-.93H142a.93.93,0,0,0,0,1.86h9.89A.93.93,0,0,0,152.78,197Zm0,4.3a.93.93,0,0,0-.93-.92H142a.93.93,0,0,0,0,1.85h9.89A.93.93,0,0,0,152.78,201.29Zm0,4.31a.93.93,0,0,0-.93-.93H142a.93.93,0,0,0,0,1.86h9.89A.93.93,0,0,0,152.78,205.6Zm0,4.3a.93.93,0,0,0-.93-.93H142a.93.93,0,0,0,0,1.86h9.89A.93.93,0,0,0,152.78,209.9Zm0,4.3a.93.93,0,0,0-.93-.92H142a.93.93,0,0,0,0,1.85h9.89A.93.93,0,0,0,152.78,214.2Zm11.83,4.31a.92.92,0,0,0-.93-.93H153.8a.93.93,0,0,0,0,1.86h9.88A.93.93,0,0,0,164.61,218.51Zm0,4.3a.93.93,0,0,0-.93-.93H153.8a.93.93,0,0,0,0,1.86h9.88A.93.93,0,0,0,164.61,222.81Zm0,4.3a.92.92,0,0,0-.93-.92H153.8a.93.93,0,1,0,0,1.85h9.88A.92.92,0,0,0,164.61,227.11ZM157.13,197a1.08,1.08,0,1,0-1.08,1.08A1.07,1.07,0,0,0,157.13,197Zm3.22,0a1.08,1.08,0,1,0-1.07,1.08A1.07,1.07,0,0,0,160.35,197Zm3.23,0a1.08,1.08,0,1,0-1.07,1.08A1.07,1.07,0,0,0,163.58,197Zm3.23,0a1.08,1.08,0,1,0-1.08,1.08A1.07,1.07,0,0,0,166.81,197Zm3.23,0a1.08,1.08,0,1,0-1.08,1.08A1.08,1.08,0,0,0,170,197Zm3.22,0a1.08,1.08,0,1,0-1.07,1.08A1.07,1.07,0,0,0,173.26,197Zm-16.13,8.61a1.08,1.08,0,1,0-1.08,1.07A1.08,1.08,0,0,0,157.13,205.6Zm3.22,0a1.08,1.08,0,1,0-1.07,1.07A1.07,1.07,0,0,0,160.35,205.6Zm3.23,0a1.08,1.08,0,1,0-1.07,1.07A1.07,1.07,0,0,0,163.58,205.6Zm3.23,0a1.08,1.08,0,1,0-1.08,1.07A1.08,1.08,0,0,0,166.81,205.6Zm3.23,0a1.08,1.08,0,1,0-1.08,1.07A1.08,1.08,0,0,0,170,205.6Zm3.22,0a1.08,1.08,0,1,0-1.07,1.07A1.07,1.07,0,0,0,173.26,205.6ZM168.15,218a1.08,1.08,0,1,0-1.07,1.08A1.08,1.08,0,0,0,168.15,218Zm3.23,0a1.08,1.08,0,1,0-1.07,1.08A1.08,1.08,0,0,0,171.38,218Zm3.23,0a1.08,1.08,0,1,0-1.08,1.08A1.08,1.08,0,0,0,174.61,218Zm3.23,0a1.08,1.08,0,1,0-1.08,1.08A1.09,1.09,0,0,0,177.84,218Zm3.22,0a1.08,1.08,0,1,0-1.07,1.08A1.08,1.08,0,0,0,181.06,218Zm3.23,0a1.08,1.08,0,1,0-1.08,1.08A1.08,1.08,0,0,0,184.29,218Zm-16.14,8.88a1.08,1.08,0,1,0-1.07,1.07A1.07,1.07,0,0,0,168.15,226.85Zm3.23,0a1.08,1.08,0,1,0-1.07,1.07A1.07,1.07,0,0,0,171.38,226.85Zm3.23,0a1.08,1.08,0,1,0-1.08,1.07A1.08,1.08,0,0,0,174.61,226.85Zm3.23,0a1.08,1.08,0,1,0-1.08,1.07A1.08,1.08,0,0,0,177.84,226.85Zm3.22,0a1.08,1.08,0,1,0-1.07,1.07A1.07,1.07,0,0,0,181.06,226.85Zm3.23,0a1.08,1.08,0,1,0-1.08,1.07A1.08,1.08,0,0,0,184.29,226.85Z" style="fill:#0E9A3D"></path><path d="M195.57,128.22h-3.76a.93.93,0,0,1,0-1.86h3.76a.93.93,0,1,1,0,1.86Zm.93,3.37a.93.93,0,0,0-.93-.92h-3.76a.93.93,0,1,0,0,1.85h3.76A.93.93,0,0,0,196.5,131.59Zm0,4.31a.93.93,0,0,0-.93-.93h-3.76a.93.93,0,0,0,0,1.86h3.76A.93.93,0,0,0,196.5,135.9Zm0,4.3a.93.93,0,0,0-.93-.93h-3.76a.93.93,0,0,0,0,1.86h3.76A.93.93,0,0,0,196.5,140.2Zm0,4.3a.93.93,0,0,0-.93-.93h-3.76a.93.93,0,0,0,0,1.86h3.76A.93.93,0,0,0,196.5,144.5Zm0,4.31a.93.93,0,0,0-.93-.93h-3.76a.93.93,0,0,0,0,1.86h3.76A.93.93,0,0,0,196.5,148.81Zm0,4.3a.93.93,0,0,0-.93-.93h-3.76a.93.93,0,1,0,0,1.86h3.76A.93.93,0,0,0,196.5,153.11Zm0,4.3a.93.93,0,0,0-.93-.93h-3.76a.93.93,0,0,0,0,1.86h3.76A.93.93,0,0,0,196.5,157.41Zm14.09-30.12a.93.93,0,0,0-.93-.93h-9.89a.93.93,0,0,0,0,1.86h9.89A.93.93,0,0,0,210.59,127.29Zm0,4.3a.93.93,0,0,0-.93-.92h-9.89a.93.93,0,1,0,0,1.85h9.89A.93.93,0,0,0,210.59,131.59Zm0,4.31a.93.93,0,0,0-.93-.93h-9.89a.93.93,0,0,0,0,1.86h9.89A.93.93,0,0,0,210.59,135.9Zm0,4.3a.93.93,0,0,0-.93-.93h-9.89a.93.93,0,0,0,0,1.86h9.89A.93.93,0,0,0,210.59,140.2Zm0,4.3a.93.93,0,0,0-.93-.93h-9.89a.93.93,0,1,0,0,1.86h9.89A.93.93,0,0,0,210.59,144.5Zm11.83,4.31a.93.93,0,0,0-.93-.93h-9.88a.93.93,0,0,0,0,1.86h9.88A.93.93,0,0,0,222.42,148.81Zm0,4.3a.93.93,0,0,0-.93-.93h-9.88a.93.93,0,1,0,0,1.86h9.88A.93.93,0,0,0,222.42,153.11Zm0,4.3a.93.93,0,0,0-.93-.93h-9.88a.93.93,0,0,0,0,1.86h9.88A.93.93,0,0,0,222.42,157.41Zm-7.48-30.12a1.08,1.08,0,1,0-1.08,1.08A1.08,1.08,0,0,0,214.94,127.29Zm3.22,0a1.08,1.08,0,1,0-1.07,1.08A1.07,1.07,0,0,0,218.16,127.29Zm3.23,0a1.08,1.08,0,1,0-1.08,1.08A1.07,1.07,0,0,0,221.39,127.29Zm3.23,0a1.08,1.08,0,1,0-1.08,1.08A1.07,1.07,0,0,0,224.62,127.29Zm3.23,0a1.08,1.08,0,1,0-1.08,1.08A1.08,1.08,0,0,0,227.85,127.29Zm3.22,0a1.08,1.08,0,1,0-1.07,1.08A1.07,1.07,0,0,0,231.07,127.29Zm-16.13,8.61a1.08,1.08,0,1,0-1.08,1.07A1.08,1.08,0,0,0,214.94,135.9Zm3.22,0a1.08,1.08,0,1,0-1.07,1.07A1.07,1.07,0,0,0,218.16,135.9Zm3.23,0a1.08,1.08,0,1,0-1.08,1.07A1.08,1.08,0,0,0,221.39,135.9Zm3.23,0a1.08,1.08,0,1,0-1.08,1.07A1.08,1.08,0,0,0,224.62,135.9Zm3.23,0a1.08,1.08,0,1,0-1.08,1.07A1.08,1.08,0,0,0,227.85,135.9Zm3.22,0A1.08,1.08,0,1,0,230,137,1.07,1.07,0,0,0,231.07,135.9ZM226,148.27a1.08,1.08,0,1,0-1.07,1.08A1.08,1.08,0,0,0,226,148.27Zm3.23,0a1.08,1.08,0,1,0-1.08,1.08A1.08,1.08,0,0,0,229.19,148.27Zm3.23,0a1.08,1.08,0,1,0-1.08,1.08A1.08,1.08,0,0,0,232.42,148.27Zm3.22,0a1.08,1.08,0,1,0-1.07,1.08A1.08,1.08,0,0,0,235.64,148.27Zm3.23,0a1.08,1.08,0,1,0-1.07,1.08A1.08,1.08,0,0,0,238.87,148.27Zm3.23,0a1.08,1.08,0,1,0-1.08,1.08A1.08,1.08,0,0,0,242.1,148.27ZM226,157.14a1.08,1.08,0,1,0-1.07,1.08A1.07,1.07,0,0,0,226,157.14Zm3.23,0a1.08,1.08,0,1,0-1.08,1.08A1.07,1.07,0,0,0,229.19,157.14Zm3.23,0a1.08,1.08,0,1,0-1.08,1.08A1.07,1.07,0,0,0,232.42,157.14Zm3.22,0a1.08,1.08,0,1,0-1.07,1.08A1.07,1.07,0,0,0,235.64,157.14Zm3.23,0a1.08,1.08,0,1,0-1.07,1.08A1.07,1.07,0,0,0,238.87,157.14Zm3.23,0a1.08,1.08,0,1,0-1.08,1.08A1.07,1.07,0,0,0,242.1,157.14Z" style="fill:#0E9A3D"></path><path d="M195.57,163.49h-3.76a.93.93,0,0,1,0-1.86h3.76a.93.93,0,0,1,0,1.86Zm.93,3.37a.93.93,0,0,0-.93-.93h-3.76a.93.93,0,1,0,0,1.86h3.76A.93.93,0,0,0,196.5,166.86Zm0,4.3a.93.93,0,0,0-.93-.93h-3.76a.93.93,0,0,0,0,1.86h3.76A.93.93,0,0,0,196.5,171.16Zm0,4.31a.93.93,0,0,0-.93-.93h-3.76a.93.93,0,1,0,0,1.85h3.76A.93.93,0,0,0,196.5,175.47Zm0,4.3a.93.93,0,0,0-.93-.93h-3.76a.93.93,0,1,0,0,1.86h3.76A.93.93,0,0,0,196.5,179.77Zm0,4.3a.93.93,0,0,0-.93-.93h-3.76a.93.93,0,0,0,0,1.86h3.76A.93.93,0,0,0,196.5,184.07Zm0,4.31a.93.93,0,0,0-.93-.93h-3.76a.93.93,0,0,0,0,1.86h3.76A.93.93,0,0,0,196.5,188.38Zm0,4.3a.93.93,0,0,0-.93-.93h-3.76a.93.93,0,0,0,0,1.86h3.76A.93.93,0,0,0,196.5,192.68Zm14.09-30.12a.93.93,0,0,0-.93-.93h-9.89a.93.93,0,0,0,0,1.86h9.89A.93.93,0,0,0,210.59,162.56Zm0,4.3a.93.93,0,0,0-.93-.93h-9.89a.93.93,0,1,0,0,1.86h9.89A.93.93,0,0,0,210.59,166.86Zm0,4.3a.93.93,0,0,0-.93-.93h-9.89a.93.93,0,0,0,0,1.86h9.89A.93.93,0,0,0,210.59,171.16Zm0,4.31a.93.93,0,0,0-.93-.93h-9.89a.93.93,0,1,0,0,1.85h9.89A.93.93,0,0,0,210.59,175.47Zm0,4.3a.93.93,0,0,0-.93-.93h-9.89a.93.93,0,1,0,0,1.86h9.89A.93.93,0,0,0,210.59,179.77Zm11.83,4.3a.93.93,0,0,0-.93-.93h-9.88a.93.93,0,0,0,0,1.86h9.88A.93.93,0,0,0,222.42,184.07Zm0,4.31a.93.93,0,0,0-.93-.93h-9.88a.93.93,0,0,0,0,1.86h9.88A.93.93,0,0,0,222.42,188.38Zm0,4.3a.93.93,0,0,0-.93-.93h-9.88a.93.93,0,0,0,0,1.86h9.88A.93.93,0,0,0,222.42,192.68Zm-7.48-30.12a1.08,1.08,0,1,0-1.08,1.07A1.08,1.08,0,0,0,214.94,162.56Zm3.22,0a1.08,1.08,0,1,0-1.07,1.07A1.07,1.07,0,0,0,218.16,162.56Zm3.23,0a1.08,1.08,0,1,0-1.08,1.07A1.08,1.08,0,0,0,221.39,162.56Zm3.23,0a1.08,1.08,0,1,0-1.08,1.07A1.08,1.08,0,0,0,224.62,162.56Zm3.23,0a1.08,1.08,0,1,0-1.08,1.07A1.08,1.08,0,0,0,227.85,162.56Zm3.22,0a1.08,1.08,0,1,0-1.07,1.07A1.07,1.07,0,0,0,231.07,162.56Zm-16.13,8.6a1.08,1.08,0,1,0-1.08,1.08A1.08,1.08,0,0,0,214.94,171.16Zm3.22,0a1.08,1.08,0,1,0-1.07,1.08A1.07,1.07,0,0,0,218.16,171.16Zm3.23,0a1.08,1.08,0,1,0-1.08,1.08A1.07,1.07,0,0,0,221.39,171.16Zm3.23,0a1.08,1.08,0,1,0-1.08,1.08A1.07,1.07,0,0,0,224.62,171.16Zm3.23,0a1.08,1.08,0,1,0-1.08,1.08A1.08,1.08,0,0,0,227.85,171.16Zm3.22,0a1.08,1.08,0,1,0-1.07,1.08A1.07,1.07,0,0,0,231.07,171.16ZM226,183.53a1.08,1.08,0,1,0-1.07,1.08A1.07,1.07,0,0,0,226,183.53Zm3.23,0a1.08,1.08,0,1,0-1.08,1.08A1.07,1.07,0,0,0,229.19,183.53Zm3.23,0a1.08,1.08,0,1,0-1.08,1.08A1.07,1.07,0,0,0,232.42,183.53Zm3.22,0a1.08,1.08,0,1,0-1.07,1.08A1.07,1.07,0,0,0,235.64,183.53Zm3.23,0a1.08,1.08,0,1,0-1.07,1.08A1.07,1.07,0,0,0,238.87,183.53Zm3.23,0a1.08,1.08,0,1,0-1.08,1.08A1.07,1.07,0,0,0,242.1,183.53ZM226,192.41a1.08,1.08,0,1,0-1.07,1.08A1.08,1.08,0,0,0,226,192.41Zm3.23,0a1.08,1.08,0,1,0-1.08,1.08A1.08,1.08,0,0,0,229.19,192.41Zm3.23,0a1.08,1.08,0,1,0-1.08,1.08A1.08,1.08,0,0,0,232.42,192.41Zm3.22,0a1.08,1.08,0,1,0-1.07,1.08A1.08,1.08,0,0,0,235.64,192.41Zm3.23,0a1.08,1.08,0,1,0-1.07,1.08A1.08,1.08,0,0,0,238.87,192.41Zm3.23,0a1.08,1.08,0,1,0-1.08,1.08A1.08,1.08,0,0,0,242.1,192.41Z" style="fill:#0E9A3D"></path><rect x="226.46" y="205.08" width="67.77" height="42.54" style="fill:#fff;stroke:#263238;stroke-linecap:round;stroke-linejoin:round"></rect><rect x="226.46" y="205.08" width="67.77" height="7.51" style="fill:#b8b8b8;stroke:#263238;stroke-linecap:round;stroke-linejoin:round"></rect><circle cx="241.35" cy="228.69" r="9.95" style="fill:#0E9A3D;stroke:#263238;stroke-linecap:round;stroke-linejoin:round"></circle><line x1="255.01" y1="227.23" x2="288.76" y2="227.23" style="fill:#fff;stroke:#263238;stroke-linecap:round;stroke-linejoin:round"></line><line x1="255.01" y1="231.74" x2="278.35" y2="231.74" style="fill:#fff;stroke:#263238;stroke-linecap:round;stroke-linejoin:round"></line><rect x="271.73" y="113.77" width="95.77" height="51.39" style="fill:#b8b8b8;stroke:#263238;stroke-linecap:round;stroke-linejoin:round"></rect><rect x="271.73" y="113.77" width="95.77" height="6.99" style="fill:#828282;stroke:#263238;stroke-linecap:round;stroke-linejoin:round"></rect><rect x="288.81" y="135.31" width="4.25" height="7.52" style="fill:#0E9A3D;stroke:#263238;stroke-linecap:round;stroke-linejoin:round"></rect><rect x="295.19" y="135.31" width="4.25" height="7.52" style="fill:#0E9A3D;stroke:#263238;stroke-linecap:round;stroke-linejoin:round"></rect><rect x="301.56" y="135.31" width="4.25" height="7.52" style="fill:#0E9A3D;stroke:#263238;stroke-linecap:round;stroke-linejoin:round"></rect><rect x="307.93" y="135.31" width="4.25" height="7.52" style="fill:#0E9A3D;stroke:#263238;stroke-linecap:round;stroke-linejoin:round"></rect><rect x="314.3" y="135.31" width="4.25" height="7.52" style="fill:#0E9A3D;stroke:#263238;stroke-linecap:round;stroke-linejoin:round"></rect><rect x="320.67" y="135.31" width="4.25" height="7.52" style="fill:#0E9A3D;stroke:#263238;stroke-linecap:round;stroke-linejoin:round"></rect><rect x="327.04" y="135.31" width="4.25" height="7.52" style="fill:#0E9A3D;stroke:#263238;stroke-linecap:round;stroke-linejoin:round"></rect><rect x="333.42" y="135.31" width="4.25" height="7.52" style="fill:#0E9A3D;stroke:#263238;stroke-linecap:round;stroke-linejoin:round"></rect><rect x="339.79" y="135.31" width="4.25" height="7.52" style="fill:#0E9A3D;stroke:#263238;stroke-linecap:round;stroke-linejoin:round"></rect><rect x="346.16" y="135.31" width="4.25" height="7.52" style="fill:#0E9A3D;stroke:#263238;stroke-linecap:round;stroke-linejoin:round"></rect><rect x="229.82" y="72.93" width="28.02" height="31.07" style="fill:#fff;stroke:#263238;stroke-miterlimit:10"></rect><rect x="229.82" y="91.45" width="28.02" height="12.54" style="fill:#d9d9d9;stroke:#263238;stroke-linecap:round;stroke-linejoin:round"></rect><rect x="238.32" y="61.51" width="11.02" height="11.69" style="fill:#fff;stroke:#263238;stroke-miterlimit:10"></rect><rect x="242.19" y="1.01" width="3.27" height="60.12" style="fill:#263238;stroke:#263238;stroke-miterlimit:10"></rect></g><g id="freepik--Character--inject-94"><path d="M85,333.76s-1.49,53-2.24,62.26-3,33.52-3.51,38,.5,17.26.5,17.26L81,452.56l-1,6.25s8,5,12,6.51-1,3.5-4.5,4a24.1,24.1,0,0,1-10.26-.5c-4-1-9-2.75-10.76-3s-2.75-2.5-2.75-5.25.25-3,0-4.26,1.25-6.5,1.5-7.75S61.7,419,62.45,410s1-21.26,1-22.51.5-14.26.5-14.26S59.7,402,59.2,403s-8.76,42.78-9,44.78.75,4.25.5,5.75-1.5,6-1.5,6,.75,6.76,3,9.76,2.75,5.5,1.5,6.51-4,1-7.26.25-3.25-.25-6.25-2.76-4-9.75-4-10.5-1.25-3.26-1.25-6,0-1.5,1-5.5.75-19.51,1-28.52,3.25-27,3.25-30.52,1.5-55.79,1.5-55.79S65.69,343.8,85,333.76Z" style="fill:#263238;stroke:#263238;stroke-linecap:round;stroke-linejoin:round"></path><path d="M73.82,461A10.24,10.24,0,0,0,80,458.81s8,5,12,6.51-1,3.5-4.5,4a24.1,24.1,0,0,1-10.26-.5c-4-1-9-2.75-10.76-3s-2.75-2.5-2.75-5.25c0-1.16,0-1.87.08-2.4C66.55,459.34,71.15,461.07,73.82,461Z" style="fill:#fff;stroke:#263238;stroke-linecap:round;stroke-linejoin:round"></path><path d="M67.47,463c4.53.36,9.74,5.87,16.7,5.08A28.53,28.53,0,0,0,93,465.84c1.89,1.41-2.4,3-5.51,3.48a24.1,24.1,0,0,1-10.26-.5c-4-1-9-2.75-10.76-3-1.26-.18-2.13-1.42-2.52-3.13C64.75,462.74,65.88,462.82,67.47,463Z" style="fill:#fff;stroke:#263238;stroke-linecap:round;stroke-linejoin:round"></path><path d="M41.32,462.77a11,11,0,0,0,7.87-3.21s.75,6.76,3,9.76,2.75,5.5,1.5,6.51-4,1-7.26.25-3.25-.25-6.25-2.76-4-9.75-4-10.5a4.63,4.63,0,0,0-.27-1.12A13.43,13.43,0,0,0,41.32,462.77Z" style="fill:#fff;stroke:#263238;stroke-linecap:round;stroke-linejoin:round"></path><path d="M40.19,473.32a11.24,11.24,0,0,1-2.9-5.16l0,.06a14,14,0,0,0,9.26,6.35,12,12,0,0,0,7.78-.5,2.06,2.06,0,0,1-.66,1.76c-1.25,1-4,1-7.26.25S43.19,475.83,40.19,473.32Z" style="fill:#fff;stroke:#263238;stroke-linecap:round;stroke-linejoin:round"></path><path d="M49.93,268.62s-12.61,7.61-13.08,9.51,5.85,72.25,5.85,72.25l27.36,3.09L72,348.6,74.67,353s6.44-.35,8.58-1.77,2.07-15.69,2.07-15.69-2.79-50.78-4-57.45-11.18-9-11.18-9S54.45,265.76,49.93,268.62Z" style="fill:#fff;stroke:#263238;stroke-miterlimit:10"></path><path d="M77.91,272.71s5.59,2.46,6.93,5.59,7.6,32.84,7.6,32.84L98,308.2s2.7,5.18.69,9.64-10.72,7.82-13,8.27S74.34,271.6,74.34,271.6Z" style="fill:#0E9A3D;stroke:#263238;stroke-linecap:round;stroke-linejoin:round"></path><path d="M99.06,311.62s.08,4.21-2.6,5.55-6-1.34-5.59-4.46S99.06,311.62,99.06,311.62Z" style="fill:#fff;stroke:#263238;stroke-miterlimit:10"></path><path d="M72.3,273.37s1.87,24.49,3.81,37.84c2,13.66,2.14,41.16,2.14,41.16s10-4.28,11.66-5.47.24-24-1.19-31.41-6.43-36.4-7.62-39.26S74,269.81,74,269.81Z" style="fill:#0E9A3D;stroke:#263238;stroke-linecap:round;stroke-linejoin:round"></path><path d="M53.74,269.33s7,17.61,10.37,32.13.58,52.34.58,52.34a98.18,98.18,0,0,1-15.23,0,102.83,102.83,0,0,1-12.14-2.14S32.56,280,34,278.37s18.56-11.66,18.56-11.66Z" style="fill:#0E9A3D;stroke:#263238;stroke-linecap:round;stroke-linejoin:round"></path><path d="M61,305.21c1.45,2.59,2.32,4.18,2.32,4.18" style="fill:none;stroke:#263238;stroke-linecap:round;stroke-linejoin:round"></path><path d="M45.42,272.32s3.89,12.7,9,21.33c1.83,3.11,3.5,6,4.9,8.47" style="fill:none;stroke:#263238;stroke-linecap:round;stroke-linejoin:round"></path><path d="M78.47,286.89c-.21,5.36-.7,14.36-1.73,18.27" style="fill:none;stroke:#263238;stroke-linecap:round;stroke-linejoin:round"></path><path d="M78.6,282.65s0,1-.07,2.54" style="fill:none;stroke:#263238;stroke-linecap:round;stroke-linejoin:round"></path><path d="M38.82,349.34s9,3.56,24.88,1.86" style="fill:none;stroke:#263238;stroke-linecap:round;stroke-linejoin:round"></path><path d="M78.94,348.5s4.4-.68,11.51-4.41" style="fill:none;stroke:#263238;stroke-linecap:round;stroke-linejoin:round"></path><path d="M54.45,263.38s-3.33.95-4.52,2.62-.71,8.33-.71,9.28,2.86,9,2.86,9l12.84-7.85,12.38,5.47A30.26,30.26,0,0,0,74,269.81C70.87,264.33,57.07,262.19,54.45,263.38Z" style="fill:#fff;stroke:#263238;stroke-miterlimit:10"></path><path d="M60,227.94a11.89,11.89,0,0,1,8.75,5.46c1.5,2.34,3.08,5,3.06,5.62,0,1.24-.4,2.78-.32,3.26s3.74,6.14,3.55,7.89-.92,9.89-2.38,13-2.77,3.3-2.77,3.3,1,8.48.25,10.42-3.16,5.1-4.62,4.61-8.71-9.38-9.89-12S52,257.5,52,257.5s-1.88-2.39-2.92-3.45a16.93,16.93,0,0,1-5.19-9.66c-1.29-6.19,3.73-12.94,8.86-15.41A13.48,13.48,0,0,1,60,227.94Z" style="fill:#b8b8b8;stroke:#263238;stroke-linecap:round;stroke-linejoin:round"></path><path d="M68.66,244s3.62,5.42,3.18,5.74a5.09,5.09,0,0,1-4,1.54c-2.37-.21-2.57-1.41-2.57-1.41" style="fill:#b8b8b8;stroke:#263238;stroke-linecap:round;stroke-linejoin:round"></path><path d="M69.85,266.43s-1.83.06-3.33-.05-8-3.94-8-3.94l11.87,12.71Z" style="fill:#263238;stroke:#263238;stroke-linecap:round;stroke-linejoin:round"></path><path d="M62.3,240.68s-3.44-1.39-4.49,2.6" style="fill:none;stroke:#263238;stroke-linecap:round;stroke-linejoin:round"></path><path d="M71.12,238.31c-1.86-1.53-4.05.69-4.05.69" style="fill:none;stroke:#263238;stroke-linecap:round;stroke-linejoin:round"></path><path d="M60.71,245.75c.12.69.56,1.2,1,1.12s.68-.69.56-1.39-.56-1.19-1-1.12S60.59,245.05,60.71,245.75Z" style="fill:#263238"></path><path d="M69.17,243.66c.11.63.52,1.09.91,1s.62-.64.52-1.27-.51-1.1-.91-1S69.07,243,69.17,243.66Z" style="fill:#263238"></path><path d="M53.09,256.08a12.55,12.55,0,0,1-1.31,1.17c-.51-.63-1.89-2.35-2.73-3.2a16.93,16.93,0,0,1-5.19-9.66c-1.29-6.19,3.73-12.94,8.86-15.41a14.49,14.49,0,0,1,8.89-.8c-.1.34-.59.78-2,1.25-3.16,1-7.25.11-9,1.89s-1.91,6.23.15,7.49,5.2,2.39,4,4.69A12.47,12.47,0,0,0,53,248.45c.08.48.88.84.18,1.08s-1.62.64-2.16-.37-2.74-2.38-3.37-.3.94,4.15,2.26,5.41A9.05,9.05,0,0,0,53.09,256.08Z" style="fill:#263238;stroke:#263238;stroke-linecap:round;stroke-linejoin:round"></path><path d="M71,254.63s-2.86,3.26-7.54-.5" style="fill:none;stroke:#263238;stroke-linecap:round;stroke-linejoin:round"></path><path d="M64.77,241.42s-7.75,1.33-8,2.66.73,4.11,1.57,4.72,6.78-1.21,7.63-1.94S65.49,241.54,64.77,241.42Z" style="fill:none;stroke:#263238;stroke-miterlimit:10"></path><path d="M67.67,240.81l2.3,5.08s5-1.09,5.08-1.93-.48-4.36-1.57-4.6S68.76,239.84,67.67,240.81Z" style="fill:none;stroke:#263238;stroke-miterlimit:10"></path><line x1="64.77" y1="241.42" x2="67.67" y2="240.81" style="fill:none;stroke:#263238;stroke-miterlimit:10"></line><line x1="56.78" y1="244.08" x2="49.64" y2="247.95" style="fill:none;stroke:#263238;stroke-miterlimit:10"></line><path d="M62.49,313.68s3.05-3.6,4.67-4.32a19.27,19.27,0,0,1,7-.89c1.44.17,4.85.53,4.85,2s0,2.47-1.43,1.62-3.78-.54-4.32-.54,3.06,2.52,2.88,3.42-2.52,2.33-4.13,3.95-2.16,2.16-3.24,2a5.49,5.49,0,0,1-2.34-1.62,6.71,6.71,0,0,1-2.87,1.62,6.79,6.79,0,0,1-3.6-.54l-2.15,1.26-.9-5.58Z" style="fill:#b8b8b8;stroke:#263238;stroke-linecap:round;stroke-linejoin:round"></path><line x1="67.52" y1="315.83" x2="70.76" y2="319.25" style="fill:none;stroke:#263238;stroke-linecap:round;stroke-linejoin:round"></line><line x1="70.22" y1="313.32" x2="73.45" y2="316.91" style="fill:none;stroke:#263238;stroke-linecap:round;stroke-linejoin:round"></line><line x1="73.27" y1="311.52" x2="71.12" y2="310.26" style="fill:none;stroke:#263238;stroke-linecap:round;stroke-linejoin:round"></line><polygon points="89.76 321.55 70.35 326.13 85.05 298.76 104.46 294.17 89.76 321.55" style="fill:#263238;stroke:#263238;stroke-linecap:round;stroke-linejoin:round"></polygon><polygon points="59.63 323.6 55.41 324.1 54.92 314.78 59.14 314.28 59.63 323.6" style="fill:#fff;stroke:#263238;stroke-miterlimit:10"></polygon><path d="M38.4,275.57s-5.93,1.44-7.55,7-9.7,46.38-9,48.89a6.37,6.37,0,0,0,3.95,4.32c1.26.36,31.06-10.7,31.06-10.7l-.72-10.43-15.06-.08,5-17.62" style="fill:#0E9A3D;stroke:#263238;stroke-linecap:round;stroke-linejoin:round"></path><line x1="41.1" y1="314.58" x2="33.37" y2="313.68" style="fill:#0E9A3D;stroke:#263238;stroke-linecap:round;stroke-linejoin:round"></line><path d="M97.26,310s1.95.81,1.8,1.62-2.86,2.27-4.36,2.59-1.2-1.62,0-2.1A8.86,8.86,0,0,0,97.26,310Z" style="fill:#b8b8b8;stroke:#263238;stroke-linecap:round;stroke-linejoin:round"></path><path d="M98,308.2s2,.81,1.8,1.62-2.85,2.27-4.36,2.6-1.2-1.62,0-2.11A8.86,8.86,0,0,0,98,308.2Z" style="fill:#b8b8b8;stroke:#263238;stroke-linecap:round;stroke-linejoin:round"></path><path d="M98.81,306s2.33.9,2.15,1.8-3.41,2.52-5.21,2.87-1.44-1.79,0-2.33A10.28,10.28,0,0,0,98.81,306Z" style="fill:#b8b8b8;stroke:#263238;stroke-linecap:round;stroke-linejoin:round"></path><path d="M99.34,304s2.33.9,2.15,1.8-3.41,2.52-5.21,2.87-1.44-1.79,0-2.33A10.28,10.28,0,0,0,99.34,304Z" style="fill:#b8b8b8;stroke:#263238;stroke-linecap:round;stroke-linejoin:round"></path></g></svg>
