<!--?xml version="1.0" standalone="no"?-->
              <svg id="sw-js-blob-svg" viewBox="0 0 100 100" xmlns="http://www.w3.org/2000/svg" version="1.1">
                    <defs> 
                        <linearGradient id="sw-gradient" x1="0" x2="1" y1="1" y2="0">
                            <stop id="stop1" stop-color="rgba(225.592, 72.47, 0, 1)" offset="0%"></stop>
                            <stop id="stop2" stop-color="rgba(206, 128, 19, 1)" offset="100%"></stop>
                        </linearGradient>
                    </defs>
                <path fill="url(#sw-gradient)" d="M23.2,-31.4C30.9,-26.3,38.7,-20.7,41.1,-13.3C43.6,-6,40.8,3.2,36.8,10.9C32.8,18.6,27.7,24.9,21.4,28.7C15.1,32.5,7.5,33.9,-1.1,35.4C-9.8,36.9,-19.5,38.6,-25.1,34.5C-30.6,30.5,-32,20.6,-34,11.7C-36,2.7,-38.7,-5.4,-37.7,-13.4C-36.7,-21.5,-32,-29.5,-25.1,-34.8C-18.2,-40.1,-9.1,-42.7,-0.7,-41.8C7.7,-40.8,15.5,-36.4,23.2,-31.4Z" width="100%" height="100%" transform="translate(50 50)" stroke-width="0" style="transition: all 0.3s ease 0s;"></path>
              </svg>