<?xml version="1.0" encoding="UTF-8"?>
<!DOCTYPE svg PUBLIC "-//W3C//DTD SVG 1.1//EN" "http://www.w3.org/Graphics/SVG/1.1/DTD/svg11.dtd">
<svg xmlns="http://www.w3.org/2000/svg" version="1.1" width="4676px" height="4675px" style="shape-rendering:geometricPrecision; text-rendering:geometricPrecision; image-rendering:optimizeQuality; fill-rule:evenodd; clip-rule:evenodd" xmlns:xlink="http://www.w3.org/1999/xlink">
<g><path style="opacity:0.068" fill="#fefefe" d="M -0.5,-0.5 C 1558.17,-0.5 3116.83,-0.5 4675.5,-0.5C 4675.5,1557.83 4675.5,3116.17 4675.5,4674.5C 3116.83,4674.5 1558.17,4674.5 -0.5,4674.5C -0.5,3116.17 -0.5,1557.83 -0.5,-0.5 Z"/></g>
<g><path style="opacity:1" fill="#82bfab" d="M 3250.5,1395.5 C 3250.17,1395.5 3249.83,1395.5 3249.5,1395.5C 2641.17,1395.5 2032.83,1395.5 1424.5,1395.5C 1424.5,1309.5 1424.5,1223.5 1424.5,1137.5C 2033.17,1137.5 2641.83,1137.5 3250.5,1137.5C 3250.5,1223.5 3250.5,1309.5 3250.5,1395.5 Z"/></g>
<g><path style="opacity:1" fill="#616e7d" d="M 1424.5,1395.5 C 2032.83,1395.5 2641.17,1395.5 3249.5,1395.5C 3249.5,1500.83 3249.5,1606.17 3249.5,1711.5C 2641.17,1711.5 2032.83,1711.5 1424.5,1711.5C 1424.5,1606.17 1424.5,1500.83 1424.5,1395.5 Z"/></g>
<g><path style="opacity:1" fill="#616e7b" d="M 1431.5,1398.5 C 2037,1397.17 2642.67,1397.17 3248.5,1398.5C 2643.11,1398.5 2037.44,1398.5 1431.5,1398.5 Z"/></g>
<g><path style="opacity:1" fill="#aad4c8" d="M 1424.5,1711.5 C 2032.83,1711.5 2641.17,1711.5 3249.5,1711.5C 3249.83,2319.67 3249.5,2927.67 3248.5,3535.5C 2936.61,3319.63 2624.78,3103.63 2313,2887.5C 2016.82,3103.59 1720.82,3319.92 1425,3536.5C 1424.5,2928.17 1424.33,2319.83 1424.5,1711.5 Z"/></g>
<g><path style="opacity:1" fill="#cfe2df" d="M 3249.5,1395.5 C 3249.83,1395.5 3250.17,1395.5 3250.5,1395.5C 3250.83,2109.17 3250.5,2822.83 3249.5,3536.5C 3248.89,3536.38 3248.56,3536.04 3248.5,3535.5C 3249.5,2927.67 3249.83,2319.67 3249.5,1711.5C 3249.5,1606.17 3249.5,1500.83 3249.5,1395.5 Z"/></g>
</svg>
