<svg version="1.1" id="Layer_1" xmlns="http://www.w3.org/2000/svg" xmlns:xlink="http://www.w3.org/1999/xlink" x="0px" y="0px"
	 width="100%" viewBox="0 0 1024 1024" enable-background="new 0 0 1024 1024" xml:space="preserve">
<path fill="#000000" opacity="1.000000" stroke="none" 
	d="
M206.970978,517.967896 
	C205.995163,442.082855 229.494339,375.135681 276.891449,316.665314 
	C288.095123,302.844147 300.526154,290.016266 314.584808,279.031952 
	C314.987946,279.304352 315.391083,279.576721 315.794220,279.849121 
	C315.636475,282.748749 315.390381,285.646698 315.334290,288.548309 
	C314.523010,330.525116 329.356964,367.031219 354.546753,399.815063 
	C370.280151,420.291656 390.248077,435.972015 411.802948,449.883423 
	C426.204346,459.178070 441.739746,466.753754 454.936493,477.876343 
	C471.299286,491.667328 481.908508,508.780762 482.835571,530.567078 
	C483.633209,549.312805 477.100586,566.166382 467.224457,581.839050 
	C456.476196,598.895630 440.785248,610.698914 424.585815,621.956787 
	C402.583527,637.247375 379.512543,651.046326 359.402924,668.972534 
	C344.501007,682.256531 333.146240,698.106750 324.709229,716.127563 
	C323.881561,717.895386 323.467896,719.942078 321.602478,721.087646 
	C319.843872,720.665649 319.849060,719.198608 319.773285,717.940247 
	C317.666779,682.954895 317.186768,648.079224 326.862152,613.891907 
	C328.069794,609.624756 327.924835,604.869751 331.611023,601.533447 
	C332.018127,601.164978 332.356812,600.099854 332.127625,599.743286 
	C329.088318,595.014404 332.441101,591.063904 333.771301,587.003479 
	C337.452332,575.767151 340.654999,564.403076 343.534424,552.943604 
	C343.942871,551.318176 344.182556,549.682678 346.004456,547.798462 
	C350.441101,551.244507 354.185699,555.100037 356.441742,560.470520 
	C362.846405,575.716919 373.346649,586.280396 390.259247,589.093079 
	C402.669403,591.156982 414.434906,588.804199 425.610901,583.261353 
	C428.116211,582.018799 428.559601,579.842163 426.451019,578.020874 
	C419.004608,571.589355 413.608582,563.090393 405.496460,557.354736 
	C395.132874,550.027100 383.762329,546.718384 371.090698,549.044800 
	C367.353455,549.730896 364.488800,549.248352 361.904358,545.960754 
	C358.728302,541.920532 355.039032,538.249207 350.845184,535.163391 
	C348.903839,533.734985 347.499725,532.058105 347.761597,529.322205 
	C349.077820,515.570435 350.363800,501.812134 349.012299,487.975189 
	C348.969879,487.541077 349.289948,487.071564 349.431671,486.646637 
	C351.225403,485.928589 351.922089,487.393555 352.749573,488.271301 
	C355.961060,491.678009 358.794342,495.414948 361.076996,499.487427 
	C373.041565,520.833191 398.003845,524.666199 417.051147,514.695435 
	C420.591888,512.841980 424.062897,510.893250 427.259705,508.441132 
	C429.943359,506.382660 430.135468,504.152496 427.510590,502.391602 
	C419.880554,497.273163 413.693054,490.345093 405.835449,485.520538 
	C394.101044,478.315521 381.658569,477.558533 368.828766,481.514191 
	C365.197418,482.633850 363.084991,481.980927 360.757751,479.055634 
	C354.601715,471.317505 347.030090,465.026581 339.162750,459.090668 
	C336.984436,457.447113 334.938049,455.723663 335.960052,452.469910 
	C342.695740,431.026031 335.369812,412.906219 322.442200,396.222351 
	C317.037567,389.247314 311.316864,382.515015 305.666718,375.733276 
	C302.800598,372.293182 300.977783,372.493958 299.284271,376.838196 
	C289.575562,401.743652 290.990326,425.394592 307.916595,447.007568 
	C315.057648,456.125916 324.047394,463.354706 333.214386,470.304840 
	C335.416290,471.974274 336.297852,473.592224 336.513031,476.411774 
	C337.504059,489.398773 337.419189,502.351501 336.319977,515.316345 
	C336.123596,517.633179 336.058502,519.953613 335.026672,522.089966 
	C328.812561,520.926636 320.824188,512.011902 320.673584,506.142395 
	C320.105042,483.989655 305.816040,464.585419 284.205627,456.412689 
	C277.006317,453.690002 269.558350,452.014404 262.058075,450.462433 
	C257.866028,449.594940 255.774780,451.345734 256.386017,455.462494 
	C259.805878,478.495789 268.117950,498.553070 290.465210,509.678864 
	C294.775818,511.824951 299.225616,513.780823 303.781891,515.318848 
	C308.291687,516.841064 312.142944,519.034302 315.672272,522.289978 
	C320.682068,526.911316 326.137665,531.053772 331.462585,535.326294 
	C332.814850,536.411316 334.141479,537.347717 333.720825,539.364990 
	C330.704285,553.831116 326.891541,568.074036 321.687592,583.452271 
	C317.512390,575.883850 310.421967,572.371765 309.065918,563.525024 
	C305.525085,540.425110 290.318756,527.252869 268.887817,520.436951 
	C260.264740,517.694458 251.188675,517.476990 242.275528,516.428711 
	C238.440292,515.977722 236.487946,517.716492 237.424149,521.736755 
	C242.829056,544.946411 262.953766,573.407715 292.662781,574.803284 
	C298.534302,575.079102 302.900330,576.998047 306.035339,582.453247 
	C308.313812,586.417786 311.958313,589.619446 315.116974,593.047668 
	C316.966858,595.055542 317.839752,597.314880 317.179108,599.903870 
	C312.210480,619.375549 307.834473,638.959595 305.957092,660.456909 
	C300.161530,654.131653 292.732300,651.707764 291.284607,642.611694 
	C289.110870,628.954041 279.721771,620.126892 268.010071,613.676880 
	C261.388153,610.029968 253.940140,608.577209 246.890625,606.063660 
	C243.912201,605.001709 243.123062,606.969666 243.529526,609.214417 
	C246.623718,626.302429 255.393311,647.980225 279.665619,653.624207 
	C281.898193,654.143311 283.580322,655.130859 285.110229,656.817078 
	C290.157532,662.379639 295.592621,667.544678 301.901978,671.678223 
	C304.180298,673.170837 305.367310,674.894714 305.296326,677.793274 
	C304.867737,695.294983 305.662506,712.747253 307.811646,730.131287 
	C307.864380,730.557800 307.498352,731.036133 306.901947,732.623047 
	C245.941147,673.594482 209.812088,603.866028 206.970978,517.967896 
z"/>
<path fill="#000000" opacity="1.000000" stroke="none" 
	d="
M387.214661,699.234497 
	C407.635254,674.780457 431.773834,654.813599 455.957245,634.903259 
	C476.673004,617.847900 497.636932,601.041077 514.417908,579.841492 
	C531.798279,557.884583 541.719849,533.085754 541.575562,504.802521 
	C541.479675,486.001984 535.072998,468.981445 526.029480,452.758331 
	C515.900757,434.588654 505.129303,416.737396 498.343994,396.891266 
	C477.470520,335.839233 498.185333,267.763489 550.434387,230.638901 
	C561.748108,222.600159 574.352783,217.571106 587.909058,214.885513 
	C589.577881,214.554916 591.465271,213.868729 594.428650,215.995499 
	C571.889038,225.113464 554.081787,238.967896 542.065491,259.593079 
	C530.086365,280.154480 523.631409,302.307678 522.922241,326.026428 
	C522.216553,349.630249 527.155090,371.835693 540.858154,391.734375 
	C539.791016,383.029205 540.956055,375.071564 547.727051,368.970337 
	C552.844177,364.359314 559.000732,362.936188 565.827881,363.570953 
	C577.034790,364.612854 586.620361,375.740967 585.169189,386.809692 
	C584.122925,394.790344 579.464783,400.473389 572.335449,404.160614 
	C565.235901,407.832458 558.142090,406.111633 550.260376,403.540344 
	C552.402893,408.102173 555.574158,410.510193 558.419434,413.183075 
	C571.171143,425.162109 584.215088,436.886841 592.746338,452.544678 
	C599.880554,465.638489 603.394897,479.766235 604.326416,494.539673 
	C607.174988,539.714905 587.595032,575.251709 556.375183,605.796021 
	C537.357178,624.402466 514.486511,637.476440 491.996216,651.132385 
	C460.121429,670.486511 427.706116,689.027283 399.435394,713.743042 
	C383.052307,728.066040 368.524445,744.034851 355.526611,761.444153 
	C354.633392,762.640564 353.666809,763.784729 352.685272,764.910339 
	C352.499725,765.123169 352.081451,765.132996 351.521973,765.319092 
	C349.458618,763.875122 350.291351,762.039185 350.934357,760.170776 
	C358.753021,737.451965 372.166168,718.060608 387.214661,699.234497 
z"/>
<path fill="#000000" opacity="1.000000" stroke="none" 
	d="
M360.143707,379.807617 
	C346.396545,358.763336 337.059082,336.372406 333.381561,311.756439 
	C331.148712,296.810944 331.884369,281.898865 333.921814,267.015839 
	C334.301971,264.238617 335.146881,261.688599 337.981232,259.981354 
	C359.112030,247.253433 380.570923,235.178040 403.779480,226.571213 
	C432.732971,215.833878 462.420746,208.373611 493.283386,205.456696 
	C510.779633,203.803070 528.128906,204.392014 545.532471,205.856262 
	C547.015198,205.981018 548.480713,206.377594 549.935364,206.726593 
	C550.352051,206.826569 550.702332,207.203125 551.766235,207.901016 
	C545.847534,210.000381 540.440063,211.833862 535.092590,213.828278 
	C483.084290,233.225555 453.071716,270.913025 444.491913,325.245758 
	C438.304443,364.428619 447.637299,400.894348 467.621887,434.881287 
	C475.834198,448.847565 485.401184,461.825348 495.405457,474.516663 
	C496.301208,475.652954 497.585022,476.589996 497.691589,478.148895 
	C496.875885,479.044617 496.087524,478.799011 495.362823,478.337280 
	C472.167145,463.557800 447.275818,451.789581 423.588348,437.868378 
	C398.372467,423.048950 376.670715,404.570221 360.143707,379.807617 
z"/>
<path fill="#000000" opacity="1.000000" stroke="none" 
	d="
M489.163849,705.102661 
	C508.098846,692.627563 527.209961,681.122742 546.340881,669.643860 
	C570.410828,655.201355 593.268250,639.130066 612.243896,618.187927 
	C633.104492,595.165649 647.886719,569.062805 653.212646,537.957092 
	C654.816956,528.586975 655.223694,519.146545 656.616089,509.789124 
	C657.179626,506.001770 657.554871,502.217407 661.796509,500.992004 
	C666.215820,499.715271 668.484131,503.088226 670.565002,506.109619 
	C679.681274,519.346008 680.834106,534.422913 679.724670,549.706421 
	C676.981384,587.497620 659.278259,618.964355 637.721863,648.980774 
	C611.889160,684.951599 580.097107,715.240906 548.259644,745.594238 
	C531.219360,761.840088 517.654846,780.711426 508.486542,802.553101 
	C508.164215,803.320923 507.795654,804.069824 507.487793,804.843079 
	C503.842316,814.000000 503.830414,814.154541 494.013000,813.268921 
	C471.599121,811.246948 449.595734,806.994812 427.904877,800.984558 
	C423.371887,799.728516 422.831268,797.676392 423.882538,793.387085 
	C432.934662,756.453064 456.135498,729.819458 485.679199,707.718994 
	C486.746216,706.920776 487.805756,706.112671 489.163849,705.102661 
z"/>
<path fill="#000000" opacity="1.000000" stroke="none" 
	d="
M592.914001,248.557251 
	C618.604675,242.665161 641.952393,255.844055 648.521362,279.648651 
	C655.011169,303.166290 642.576050,328.484467 619.519043,336.214722 
	C595.615479,344.228912 568.983459,331.841187 561.070251,308.569031 
	C552.171753,282.399139 565.250916,255.856979 592.914001,248.557251 
z"/>
<path fill="#000000" opacity="1.000000" stroke="none" 
	d="
M644.963989,766.907166 
	C653.192810,768.925598 661.246826,770.036011 669.049194,772.962952 
	C654.613586,791.864380 544.697449,821.270142 519.118225,813.214905 
	C520.302979,807.837097 522.942261,802.963501 525.596375,798.314880 
	C535.379639,781.179382 546.657288,765.152710 561.551636,751.906067 
	C566.103394,747.857910 570.247498,746.072815 576.733826,748.001465 
	C599.219971,754.687378 621.937012,760.596558 644.963989,766.907166 
z"/>
<path fill="#000000" opacity="1.000000" stroke="none" 
	d="
M656.055542,706.322510 
	C677.814575,708.206116 699.140869,710.548828 720.633850,709.978027 
	C726.962158,709.809937 733.295532,709.834351 739.626160,709.745850 
	C741.601990,709.718262 743.609802,709.351807 746.043152,710.792114 
	C744.027832,714.890137 740.552917,717.802856 737.429443,720.736511 
	C724.078552,733.275452 710.493042,745.536255 696.239746,757.095642 
	C689.998657,762.157104 684.204163,763.183655 676.704407,761.861938 
	C649.740540,757.110046 623.716431,748.822693 597.453369,741.427490 
	C593.524780,740.321289 589.177551,740.281799 585.770752,737.402405 
	C586.224915,734.904785 588.494324,734.582153 590.133850,733.720947 
	C607.828369,724.426819 626.470398,717.079590 644.042664,707.529053 
	C647.739502,705.519836 651.614807,705.145630 656.055542,706.322510 
z"/>
<path fill="#000000" opacity="1.000000" stroke="none" 
	d="
M681.948120,617.936157 
	C697.719482,602.430786 715.095215,589.670227 734.098389,579.104004 
	C736.657715,577.680908 739.052185,575.705322 742.535645,576.006531 
	C743.795837,579.926514 741.457153,583.167664 740.378601,586.417175 
	C729.036438,620.589294 708.704163,648.316711 680.102783,670.144531 
	C658.511475,686.622375 634.138428,698.151672 610.037903,710.195068 
	C607.900024,711.263489 605.722839,712.253296 602.611267,713.732483 
	C603.344421,712.052429 603.440125,711.324585 603.854919,710.955750 
	C621.577698,695.197632 633.929688,675.038635 648.432312,656.642334 
	C658.935425,643.319336 669.237366,629.815430 681.948120,617.936157 
z"/>
<path fill="#000000" opacity="1.000000" stroke="none" 
	d="
M734.709229,558.794678 
	C722.863464,566.192566 710.813110,572.273010 697.723328,576.337097 
	C696.407104,573.370667 698.081482,571.625793 698.972717,569.799072 
	C710.095947,547.001038 725.867126,527.425598 741.961487,508.089996 
	C758.240112,488.532898 775.811646,469.968964 788.020142,447.320160 
	C792.055054,439.834686 795.664734,432.169586 798.669739,424.216919 
	C799.354187,422.405487 799.594360,420.281128 802.665100,419.191071 
	C806.567383,447.317047 800.435547,473.418213 788.974792,498.456879 
	C777.278992,524.009033 758.435669,543.424622 734.709229,558.794678 
z"/>
<path fill="#000000" opacity="1.000000" stroke="none" 
	d="
M683.968384,466.000244 
	C673.091980,475.252777 656.841187,477.246216 644.360413,470.880981 
	C631.233337,464.186157 625.050903,452.843811 625.896301,438.661591 
	C626.842896,422.783051 636.644043,405.699951 659.434875,405.410156 
	C679.477234,405.155304 694.499146,418.031128 695.646790,437.563995 
	C696.287720,448.472992 692.505127,458.170135 683.968384,466.000244 
z"/>
<path fill="#000000" opacity="1.000000" stroke="none" 
	d="
M740.171509,624.896118 
	C739.095703,625.549255 738.445801,626.616272 736.850159,625.496277 
	C740.817688,618.745117 744.179565,611.627014 747.364075,604.415710 
	C752.215881,593.428894 755.711426,581.976746 759.345337,570.572144 
	C760.121521,568.136353 761.446594,566.604553 763.657104,565.452454 
	C781.196289,556.310791 799.631042,549.832214 819.168762,546.592224 
	C819.636963,546.514648 820.146240,546.685181 820.585693,546.734314 
	C822.082336,548.006653 821.475037,549.566956 821.209961,550.966980 
	C819.258911,561.272461 816.746948,571.440369 813.818665,581.515686 
	C813.024841,584.246887 811.333557,585.609863 808.928650,586.686951 
	C791.277344,594.592651 774.193359,603.587708 757.709656,613.705505 
	C751.894531,617.274841 746.189087,621.023071 740.171509,624.896118 
z"/>
<path fill="#000000" opacity="1.000000" stroke="none" 
	d="
M681.449341,696.348938 
	C677.131592,696.160156 673.136108,696.645813 669.501587,694.813293 
	C669.788147,692.666260 671.274170,692.022522 672.471863,691.228333 
	C680.929260,685.620544 689.421265,680.064941 697.904907,674.496826 
	C699.601013,673.383545 701.399963,672.644653 703.492126,672.600464 
	C728.120178,672.080872 752.520874,669.064331 776.907349,665.889954 
	C777.194763,665.852600 777.518127,666.090942 777.902710,666.228455 
	C779.153320,667.962463 777.984985,669.347351 777.056152,670.664490 
	C771.395752,678.690857 765.665527,686.667969 760.013000,694.699829 
	C758.205383,697.268372 755.791077,698.155090 752.731934,698.197266 
	C729.089844,698.522766 705.458557,698.551025 681.449341,696.348938 
z"/>
<path fill="#000000" opacity="1.000000" stroke="none" 
	d="
M721.505615,659.385864 
	C718.970459,659.680664 716.914917,660.802063 713.628723,659.283325 
	C743.095215,636.865234 772.480042,615.709167 807.653015,601.869690 
	C804.699463,612.882629 801.115234,622.480652 797.427612,632.028809 
	C795.510864,636.991821 792.958008,641.707336 790.990356,646.653137 
	C789.396851,650.658752 786.685120,652.415283 782.457703,653.077148 
	C762.389709,656.218933 742.200867,658.082825 721.505615,659.385864 
z"/>
<path fill="#000000" opacity="1.000000" stroke="none" 
	d="
M714.048340,376.337402 
	C692.789673,379.959625 673.965881,364.208038 673.608643,343.044312 
	C673.506226,336.978088 674.344971,331.176117 676.460083,325.481506 
	C677.557861,322.526123 679.088867,321.826752 682.134277,322.654602 
	C690.811279,325.013245 696.229065,331.165833 700.765381,338.283508 
	C705.971436,346.451874 711.275879,354.542328 719.483765,360.020050 
	C723.292908,362.562225 727.582458,364.384583 732.299316,366.873657 
	C727.349548,372.749756 720.999451,374.678711 714.048340,376.337402 
z"/>
<path fill="#000000" opacity="1.000000" stroke="none" 
	d="
M784.168701,424.028625 
	C774.428955,445.199493 763.281067,464.957245 746.136841,481.399109 
	C735.059753,451.471497 762.205261,402.751617 792.645264,397.260040 
	C791.631348,406.790680 787.606018,415.126190 784.168701,424.028625 
z"/>
<path fill="#000000" opacity="1.000000" stroke="none" 
	d="
M736.055298,322.044006 
	C743.237732,332.525574 744.644104,343.400024 740.544189,355.074707 
	C739.331055,358.529022 737.419922,359.061890 734.066772,358.189178 
	C725.641357,355.996368 718.926697,351.329315 713.715088,344.554871 
	C705.402466,333.749542 699.688843,320.433716 684.665466,316.339478 
	C695.625061,304.048187 722.299255,302.841339 736.055298,322.044006 
z"/>
<path fill="#000000" opacity="1.000000" stroke="none" 
	d="
M722.968506,508.970764 
	C719.201233,512.634460 716.847046,517.188965 712.680725,520.121643 
	C702.141357,503.246613 723.948914,443.239227 743.151855,436.054047 
	C743.125427,439.599152 741.451355,442.551880 740.497864,445.625336 
	C736.743774,457.726837 735.608948,470.188477 736.761230,482.632568 
	C737.479736,490.391663 736.734924,496.623108 730.163574,501.548004 
	C727.533630,503.519043 725.511719,506.301422 722.968506,508.970764 
z"/>
<path fill="#000000" opacity="1.000000" stroke="none" 
	d="
M296.236938,479.759308 
	C302.767181,486.477020 306.426270,494.241241 307.938507,503.208862 
	C291.106323,495.413940 279.005402,483.042297 270.414642,465.423279 
	C281.121979,467.691101 288.861603,473.018188 296.236938,479.759308 
z"/>
<path fill="#000000" opacity="1.000000" stroke="none" 
	d="
M321.142975,442.919769 
	C309.489075,429.126343 306.584686,413.233551 307.639130,395.973846 
	C318.530670,402.577820 329.884583,435.921112 324.810547,445.741608 
	C322.974304,445.828156 322.410278,444.202209 321.142975,442.919769 
z"/>
<path fill="#000000" opacity="1.000000" stroke="none" 
	d="
M283.281433,556.813782 
	C271.251953,551.383972 263.099182,542.071594 254.892792,532.521484 
	C266.340271,529.076294 292.347992,544.225647 296.501526,561.990051 
	C291.679657,561.314453 287.707794,558.977905 283.281433,556.813782 
z"/>
<path fill="#000000" opacity="1.000000" stroke="none" 
	d="
M396.451782,495.334778 
	C400.549957,497.839264 404.845398,499.298645 408.321869,502.282440 
	C400.166962,508.812836 379.676880,504.142639 372.090302,493.811218 
	C380.504852,490.573761 388.342407,491.859894 396.451782,495.334778 
z"/>
<path fill="#000000" opacity="1.000000" stroke="none" 
	d="
M394.716217,565.089050 
	C399.579071,567.981445 403.933228,570.912537 407.443665,575.192688 
	C394.450989,578.336365 377.717743,572.527771 371.390991,561.279846 
	C379.689148,559.638977 387.191589,561.164368 394.716217,565.089050 
z"/>
</svg>