<svg version="1.2" xmlns="http://www.w3.org/2000/svg" viewBox="0 0 129 341" width="500" height="500">
	<title>icon-1717391-svg</title>
	<style>
		.s0 { fill: #000000 } 
	</style>
	<path id="Layer" class="s0" d="m121.8 155.6c-6 19.7-14.1 38.8-19.1 58.9-5 20.1-9.2 40.7-10.8 61.4-0.6 7.9 1.6 15.5 0.5 23.6-1.2 8.4-4.6 16.5-9.9 23.1-12.3 15.5-33.7 22.5-52 14.5-17.1-7.4-28.5-25-28.5-43.5 0-23.9 17.6-38.8 32.8-55 8.4-9 16.4-18.5 21.4-29.8 4.9-11.3 6.4-24.5 1.5-35.8-4.8-11.2-14.6-18-24-24.9-9-6.6-17-16.4-22.7-26.1-9.6-16-15.4-38.7-2.9-54.9 6.9-9.1 18.7-14.1 32.9-14.1 24.2 0 47.4 13.5 65.3 28.8 7.3 6.2 13.7 13.8 17.3 22.7 5.6 13.7 4.3 29.3 0.4 43.6-0.7 2.5-1.5 5-2.2 7.5z"/>
	<path id="Layer" class="s0" d="m41.4 25c0.1 13.6-7.5 21.8-16.9 21.9-9.5 0.1-17.2-8-17.3-21.6-0.1-13.6 7.4-24.6 16.9-24.7 9.4-0.1 17.2 10.8 17.3 24.4z"/>
	<path id="Layer" class="s0" d="m61.6 41c-6.5 0.5-12.2-5.7-12.9-13.8-0.6-8.1 4.1-15 10.5-15.6 6.5-0.5 12.2 5.7 12.9 13.8 0.6 8.1-4.1 15-10.5 15.6z"/>
	<path id="Layer" class="s0" d="m85.3 50.8c-5 0.1-9.2-5.1-9.3-11.6-0.1-6.5 3.8-11.9 8.9-12 5-0.1 9.2 5.1 9.3 11.6 0.1 6.5-3.8 11.9-8.9 12z"/>
	<path id="Layer" class="s0" d="m102.6 63.6c-4.1-0.9-6.4-6-5.1-11.4 1.3-5.3 5.6-8.8 9.7-7.8 4.1 1 6.4 6.1 5.1 11.4-1.3 5.3-5.6 8.8-9.7 7.8z"/>
	<path id="Layer" class="s0" d="m128.4 71.2c-1.1 5.4-5 8.9-8.7 7.9-3.7-1-5.7-6.2-4.5-11.5 1.1-5.4 5-8.9 8.7-7.9 3.6 1 5.7 6.1 4.5 11.5z"/>
</svg>